<mxfile host="app.diagrams.net" agent="Mozilla/5.0 (X11; Linux x86_64) AppleWebKit/537.36 (KHTML, like Gecko) Chrome/132.0.0.0 Safari/537.36" version="26.0.6">
  <diagram id="d1ab7348-05c3-a1e3-ca4d-12c340fd6b49" name="Page-1">
    <mxGraphModel dx="1526" dy="778" grid="1" gridSize="10" guides="1" tooltips="1" connect="1" arrows="1" fold="1" page="1" pageScale="1" pageWidth="1169" pageHeight="827" background="none" math="0" shadow="0">
      <root>
        <mxCell id="0" />
        <mxCell id="1" parent="0" />
        <mxCell id="3ZfG_3-aHI2Txs_DAWEP-415" value="&lt;b&gt;JD App Protection&lt;/b&gt;" style="fillColor=#F6F6F6;strokeColor=none;shadow=0;gradientColor=none;fontSize=14;align=left;spacing=10;fontColor=#717171;9E9E9E;verticalAlign=top;spacingTop=-4;fontStyle=0;spacingLeft=40;html=1;container=0;" parent="1" vertex="1">
          <mxGeometry x="200" y="80" width="900" height="720" as="geometry" />
        </mxCell>
        <mxCell id="3ZfG_3-aHI2Txs_DAWEP-419" value="us-east1-d" style="rounded=1;absoluteArcSize=1;arcSize=2;html=1;strokeColor=none;gradientColor=none;shadow=0;dashed=0;strokeColor=none;fontSize=12;fontColor=#9E9E9E;align=left;verticalAlign=top;spacing=10;spacingTop=-4;fillColor=#E1F5FE;" parent="1" vertex="1">
          <mxGeometry x="479.5" y="99" width="250.5" height="281" as="geometry" />
        </mxCell>
        <mxCell id="3ZfG_3-aHI2Txs_DAWEP-420" style="edgeStyle=orthogonalEdgeStyle;rounded=0;html=1;labelBackgroundColor=none;startFill=1;startSize=4;endArrow=blockThin;endFill=1;endSize=4;jettySize=auto;orthogonalLoop=1;strokeColor=#6c8ebf;strokeWidth=2;fontSize=12;fontColor=#000000;align=center;dashed=0;fillColor=#dae8fc;" parent="1" target="3ZfG_3-aHI2Txs_DAWEP-519" edge="1">
          <mxGeometry relative="1" as="geometry">
            <mxPoint x="152.5" y="289.090909090909" as="sourcePoint" />
          </mxGeometry>
        </mxCell>
        <mxCell id="3ZfG_3-aHI2Txs_DAWEP-421" value="客户端" style="rounded=1;absoluteArcSize=1;arcSize=2;html=1;strokeColor=none;gradientColor=none;shadow=0;dashed=0;strokeColor=none;fontSize=12;fontColor=#9E9E9E;align=left;verticalAlign=top;spacing=10;spacingTop=-4;fillColor=#F3E5F5;movable=1;resizable=1;rotatable=1;deletable=1;editable=1;locked=0;connectable=1;" parent="1" vertex="1">
          <mxGeometry x="62.5" y="220" width="90" height="120" as="geometry" />
        </mxCell>
        <mxCell id="3ZfG_3-aHI2Txs_DAWEP-422" value="" style="strokeColor=#dddddd;fillColor=#ffffff;shadow=1;strokeWidth=1;rounded=1;absoluteArcSize=1;arcSize=2;labelPosition=center;verticalLabelPosition=middle;align=center;verticalAlign=bottom;spacingLeft=0;fontColor=#999999;fontSize=12;whiteSpace=wrap;spacingBottom=2;html=1;movable=1;resizable=1;rotatable=1;deletable=1;editable=1;locked=0;connectable=1;" parent="1" vertex="1">
          <mxGeometry x="72.5" y="260" width="70" height="70" as="geometry" />
        </mxCell>
        <mxCell id="3ZfG_3-aHI2Txs_DAWEP-423" value="" style="dashed=0;connectable=1;html=1;fillColor=#757575;strokeColor=none;shape=mxgraph.gcp2.laptop;part=1;movable=1;resizable=1;rotatable=1;deletable=1;editable=1;locked=0;" parent="3ZfG_3-aHI2Txs_DAWEP-422" vertex="1">
          <mxGeometry x="0.5" width="50" height="33" relative="1" as="geometry">
            <mxPoint x="-25" y="18.5" as="offset" />
          </mxGeometry>
        </mxCell>
        <mxCell id="3ZfG_3-aHI2Txs_DAWEP-452" value="1" style="shape=ellipse;fillColor=#ffffff;strokeColor=#BDBDBD;strokeWidth=2;shadow=0;gradientColor=none;fontColor=#757575;align=center;html=1;fontStyle=1;spacingTop=-1;" parent="1" vertex="1">
          <mxGeometry x="165" y="279" width="20" height="20" as="geometry" />
        </mxCell>
        <mxCell id="3ZfG_3-aHI2Txs_DAWEP-525" value="" style="shape=mxgraph.gcp2.doubleRect;strokeColor=#dddddd;shadow=1;strokeWidth=1;rounded=1;absoluteArcSize=1;arcSize=2;" parent="1" vertex="1">
          <mxGeometry x="509.5" y="129" width="187.5" height="68" as="geometry" />
        </mxCell>
        <mxCell id="3ZfG_3-aHI2Txs_DAWEP-526" value="&lt;font color=&quot;#000000&quot;&gt;防注入及反调试&lt;/font&gt;&lt;br&gt;Compute Engine" style="editableCssRules=.*;html=1;fontColor=#999999;shape=image;verticalLabelPosition=middle;verticalAlign=middle;labelPosition=right;align=left;spacingLeft=20;part=1;points=[];imageAspect=0;image=data:image/svg+xml,PHN2ZyB4bWxucz0iaHR0cDovL3d3dy53My5vcmcvMjAwMC9zdmciIHhtbG5zOnY9Imh0dHBzOi8vdmVjdGEuaW8vbmFubyIgd2lkdGg9IjIwIiBoZWlnaHQ9IjIwIiB2aWV3Qm94PSIwIDAgMjAgMjAiPiYjeGE7CTxzdHlsZSB0eXBlPSJ0ZXh0L2NzcyI+JiN4YTsJLnN0MHtmaWxsOiM0Mjg1ZjQ7fSYjeGE7CS5zdDF7ZmlsbDojNjY5ZGY2O30mI3hhOwkuc3Qye2ZpbGw6I2FlY2JmYTt9JiN4YTsJPC9zdHlsZT4mI3hhOwk8cGF0aCBjbGFzcz0ic3QyIiBkPSJNNyA3aDZ2Nkg3eiIvPiYjeGE7CTxwYXRoIGNsYXNzPSJzdDEiIGQ9Ik05IDBoMnY0SDl6TTUgMGgydjRINXptOCAwaDJ2NGgtMnoiLz4mI3hhOwk8cGF0aCBjbGFzcz0ic3QwIiBkPSJNOSAxNmgydjRIOXptLTQgMGgydjRINXptOCAwaDJ2NGgtMnptMy01VjloNHYyem0wIDR2LTJoNHYyem0wLThWNWg0djJ6Ii8+JiN4YTsJPHBhdGggY2xhc3M9InN0MSIgZD0iTTAgMTFWOWg0djJ6bTAgNHYtMmg0djJ6bTAtOFY1aDR2MnoiLz4mI3hhOwk8cGF0aCBjbGFzcz0ic3QyIiBkPSJNMyAzdjE0aDE0VjN6bTEyIDEySDVWNWgxMHoiLz4mI3hhOwk8cGF0aCBjbGFzcz0ic3QxIiBkPSJNMTAgMTBsLTMgM2g2eiIvPiYjeGE7CTxwYXRoIGNsYXNzPSJzdDAiIGQ9Ik0xMyA3bC0zIDMgMyAzeiIvPiYjeGE7PC9zdmc+;" parent="3ZfG_3-aHI2Txs_DAWEP-525" vertex="1">
          <mxGeometry width="30" height="30" relative="1" as="geometry">
            <mxPoint x="15" y="15" as="offset" />
          </mxGeometry>
        </mxCell>
        <mxCell id="3ZfG_3-aHI2Txs_DAWEP-527" value="" style="shape=mxgraph.gcp2.doubleRect;strokeColor=#dddddd;shadow=1;strokeWidth=1;rounded=1;absoluteArcSize=1;arcSize=2;" parent="1" vertex="1">
          <mxGeometry x="512.5" y="387" width="187.5" height="68" as="geometry" />
        </mxCell>
        <mxCell id="3ZfG_3-aHI2Txs_DAWEP-528" value="&lt;font color=&quot;#000000&quot;&gt;花指令&lt;/font&gt;&lt;br&gt;破坏so代码堆栈" style="editableCssRules=.*;html=1;fontColor=#999999;shape=image;verticalLabelPosition=middle;verticalAlign=middle;labelPosition=right;align=left;spacingLeft=20;part=1;points=[];imageAspect=0;image=data:image/svg+xml,PHN2ZyB4bWxucz0iaHR0cDovL3d3dy53My5vcmcvMjAwMC9zdmciIHhtbG5zOnY9Imh0dHBzOi8vdmVjdGEuaW8vbmFubyIgd2lkdGg9IjIwIiBoZWlnaHQ9IjIwIiB2aWV3Qm94PSIwIDAgMjAgMjAiPiYjeGE7CTxzdHlsZSB0eXBlPSJ0ZXh0L2NzcyI+JiN4YTsJLnN0MHtmaWxsOiM0Mjg1ZjQ7fSYjeGE7CS5zdDF7ZmlsbDojNjY5ZGY2O30mI3hhOwkuc3Qye2ZpbGw6I2FlY2JmYTt9JiN4YTsJPC9zdHlsZT4mI3hhOwk8cGF0aCBjbGFzcz0ic3QyIiBkPSJNNyA3aDZ2Nkg3eiIvPiYjeGE7CTxwYXRoIGNsYXNzPSJzdDEiIGQ9Ik05IDBoMnY0SDl6TTUgMGgydjRINXptOCAwaDJ2NGgtMnoiLz4mI3hhOwk8cGF0aCBjbGFzcz0ic3QwIiBkPSJNOSAxNmgydjRIOXptLTQgMGgydjRINXptOCAwaDJ2NGgtMnptMy01VjloNHYyem0wIDR2LTJoNHYyem0wLThWNWg0djJ6Ii8+JiN4YTsJPHBhdGggY2xhc3M9InN0MSIgZD0iTTAgMTFWOWg0djJ6bTAgNHYtMmg0djJ6bTAtOFY1aDR2MnoiLz4mI3hhOwk8cGF0aCBjbGFzcz0ic3QyIiBkPSJNMyAzdjE0aDE0VjN6bTEyIDEySDVWNWgxMHoiLz4mI3hhOwk8cGF0aCBjbGFzcz0ic3QxIiBkPSJNMTAgMTBsLTMgM2g2eiIvPiYjeGE7CTxwYXRoIGNsYXNzPSJzdDAiIGQ9Ik0xMyA3bC0zIDMgMyAzeiIvPiYjeGE7PC9zdmc+;" parent="3ZfG_3-aHI2Txs_DAWEP-527" vertex="1">
          <mxGeometry width="30" height="30" relative="1" as="geometry">
            <mxPoint x="15" y="15" as="offset" />
          </mxGeometry>
        </mxCell>
        <mxCell id="3ZfG_3-aHI2Txs_DAWEP-416" value="" style="shape=mxgraph.gcp2.google_cloud_platform;fillColor=#F6F6F6;strokeColor=none;shadow=0;gradientColor=none;" parent="1" vertex="1">
          <mxGeometry x="210" y="89" width="23" height="20" as="geometry">
            <mxPoint x="20" y="10" as="offset" />
          </mxGeometry>
        </mxCell>
        <mxCell id="3ZfG_3-aHI2Txs_DAWEP-519" value="" style="strokeColor=#dddddd;shadow=1;strokeWidth=1;rounded=1;absoluteArcSize=1;arcSize=2;" parent="1" vertex="1">
          <mxGeometry x="223" y="149" width="170" height="60" as="geometry" />
        </mxCell>
        <mxCell id="3ZfG_3-aHI2Txs_DAWEP-520" value="&lt;font color=&quot;#000000&quot;&gt;Java层代码混淆&lt;/font&gt;&lt;br&gt;基础反编译" style="editableCssRules=.*;html=1;fontColor=#999999;shape=image;verticalLabelPosition=middle;verticalAlign=middle;labelPosition=right;align=left;spacingLeft=20;part=1;points=[];imageAspect=0;image=data:image/svg+xml,PHN2ZyB4bWxucz0iaHR0cDovL3d3dy53My5vcmcvMjAwMC9zdmciIHhtbG5zOnY9Imh0dHBzOi8vdmVjdGEuaW8vbmFubyIgd2lkdGg9IjIwIiBoZWlnaHQ9IjExLjI1OTk5OTI3NTIwNzUyIiBmaWxsLXJ1bGU9ImV2ZW5vZGQiIHZpZXdCb3g9IjAgMCAyMCAxMS4yNTk5OTkyNzUyMDc1MiI+JiN4YTsJPHN0eWxlIHR5cGU9InRleHQvY3NzIj4mI3hhOwkuc3Qwe2ZpbGw6IzQyODVmNDt9JiN4YTsJLnN0MXtmaWxsOiM2NjlkZjY7fSYjeGE7CS5zdDJ7ZmlsbDojYWVjYmZhO30mI3hhOwk8L3N0eWxlPiYjeGE7CTxwYXRoIGNsYXNzPSJzdDEiIGQ9Ik00LjY4IDEuNDJIMi40MkwwIDUuNjdsMi40MiA0LjI2aDIuMjZMMi4yNyA1LjY3eiIvPiYjeGE7CTxwYXRoIGNsYXNzPSJzdDAiIGQ9Ik0wIDUuNjdsMS4xMSAxLjk3IDEuNDYtMS40NS0uMy0uNTJ6Ii8+JiN4YTsJPHBhdGggY2xhc3M9InN0MiIgZD0iTTEzIDBINy4xMkwzLjgxIDUuNjNsMy4zMSA1LjU5SDEzbDMuMjktNS41OXptLTIuOTMgOC4zNmEyLjY0IDIuNjQgMCAxIDEgMi42Ni0yLjY0IDIuNjUgMi42NSAwIDAgMS0yLjY2IDIuNjR6TTIuNDIgMS40MkwwIDUuNjlsMS4xMSAxLjk3IDEuMTYtMS45NyAyLjQxLTQuMjd6Ii8+JiN4YTsJPHBhdGggY2xhc3M9InN0MSIgZD0iTTEzIC4wOGgwbC0xLjcgMy4zM2EyLjY2IDIuNjYgMCAwIDEtMS4yNSA1IDIuNjIgMi42MiAwIDAgMS0xLjE4LS4yN2wtMS43NSAzLjEySDEzbDMuMjktNS42M3ptMi4zMiA5Ljg1aDIuMjdMMjAgNS42N2wtMi40MS00LjI1aC0yLjI3bDIuNDEgNC4yNXoiPiYjeGE7CTxwYXRoIGNsYXNzPSJzdDAiIGQ9Ik0yMCA1LjY3TDE4Ljg5IDMuN2wtMS40NiAxLjQ2LjMuNTF6Ii8+JiN4YTsJPHBhdGggY2xhc3M9InN0MiIgZD0iTTE3LjU5IDkuOTNMMjAgNS42NWwtMS4xMS0xLjk3LTEuMTYgMS45Ny0yLjQxIDQuMjh6Ii8+JiN4YTs8L3BhdGg+PC9zdmc+;" parent="3ZfG_3-aHI2Txs_DAWEP-519" vertex="1">
          <mxGeometry width="30" height="16" relative="1" as="geometry">
            <mxPoint x="15" y="22" as="offset" />
          </mxGeometry>
        </mxCell>
        <mxCell id="3ZfG_3-aHI2Txs_DAWEP-424" style="edgeStyle=orthogonalEdgeStyle;rounded=0;html=1;labelBackgroundColor=none;startFill=1;startSize=4;endArrow=blockThin;endFill=1;endSize=4;jettySize=auto;orthogonalLoop=1;strokeColor=#6c8ebf;strokeWidth=2;fontSize=12;fontColor=#000000;align=center;dashed=0;entryX=0.5;entryY=0;entryDx=0;entryDy=0;fillColor=#dae8fc;" parent="1" source="3ZfG_3-aHI2Txs_DAWEP-453" target="OMHjARtMPfLWOy3MkBUM-3" edge="1">
          <mxGeometry relative="1" as="geometry">
            <mxPoint x="307.5" y="359" as="targetPoint" />
          </mxGeometry>
        </mxCell>
        <mxCell id="3ZfG_3-aHI2Txs_DAWEP-523" value="" style="strokeColor=#dddddd;shadow=1;strokeWidth=1;rounded=1;absoluteArcSize=1;arcSize=2;" parent="1" vertex="1">
          <mxGeometry x="221" y="590" width="170" height="60" as="geometry" />
        </mxCell>
        <mxCell id="3ZfG_3-aHI2Txs_DAWEP-524" value="&lt;font color=&quot;#000000&quot;&gt;native层代码混淆&lt;/font&gt;&lt;br&gt;核心代码保护" style="editableCssRules=.*;html=1;fontColor=#999999;shape=image;verticalLabelPosition=middle;verticalAlign=middle;labelPosition=right;align=left;spacingLeft=20;part=1;points=[];imageAspect=0;image=data:image/svg+xml,PHN2ZyB4bWxucz0iaHR0cDovL3d3dy53My5vcmcvMjAwMC9zdmciIHhtbG5zOnY9Imh0dHBzOi8vdmVjdGEuaW8vbmFubyIgd2lkdGg9IjIwIiBoZWlnaHQ9IjIwIiB2aWV3Qm94PSIwIDAgMjAgMjAiPiYjeGE7CTxzdHlsZSB0eXBlPSJ0ZXh0L2NzcyI+JiN4YTsJLnN0MHtmaWxsOiM0Mjg1ZjQ7fSYjeGE7CS5zdDF7ZmlsbDojNjY5ZGY2O30mI3hhOwkuc3Qye2ZpbGw6I2FlY2JmYTt9JiN4YTsJPC9zdHlsZT4mI3hhOwk8cGF0aCBjbGFzcz0ic3QyIiBkPSJNNyA3aDZ2Nkg3eiIvPiYjeGE7CTxwYXRoIGNsYXNzPSJzdDEiIGQ9Ik05IDBoMnY0SDl6TTUgMGgydjRINXptOCAwaDJ2NGgtMnoiLz4mI3hhOwk8cGF0aCBjbGFzcz0ic3QwIiBkPSJNOSAxNmgydjRIOXptLTQgMGgydjRINXptOCAwaDJ2NGgtMnptMy01VjloNHYyem0wIDR2LTJoNHYyem0wLThWNWg0djJ6Ii8+JiN4YTsJPHBhdGggY2xhc3M9InN0MSIgZD0iTTAgMTFWOWg0djJ6bTAgNHYtMmg0djJ6bTAtOFY1aDR2MnoiLz4mI3hhOwk8cGF0aCBjbGFzcz0ic3QyIiBkPSJNMyAzdjE0aDE0VjN6bTEyIDEySDVWNWgxMHoiLz4mI3hhOwk8cGF0aCBjbGFzcz0ic3QxIiBkPSJNMTAgMTBsLTMgM2g2eiIvPiYjeGE7CTxwYXRoIGNsYXNzPSJzdDAiIGQ9Ik0xMyA3bC0zIDMgMyAzeiIvPiYjeGE7PC9zdmc+;" parent="3ZfG_3-aHI2Txs_DAWEP-523" vertex="1">
          <mxGeometry width="30" height="30" relative="1" as="geometry">
            <mxPoint x="15" y="15" as="offset" />
          </mxGeometry>
        </mxCell>
        <mxCell id="3ZfG_3-aHI2Txs_DAWEP-427" style="edgeStyle=orthogonalEdgeStyle;rounded=0;html=1;labelBackgroundColor=none;startFill=1;startSize=4;endArrow=blockThin;endFill=1;endSize=4;jettySize=auto;orthogonalLoop=1;strokeColor=#4284F3;strokeWidth=2;fontSize=12;fontColor=#000000;align=center;dashed=0;exitX=0.5;exitY=1;exitDx=0;exitDy=0;" parent="1" source="OMHjARtMPfLWOy3MkBUM-3" target="3ZfG_3-aHI2Txs_DAWEP-523" edge="1">
          <mxGeometry relative="1" as="geometry">
            <mxPoint x="307.5" y="423" as="sourcePoint" />
          </mxGeometry>
        </mxCell>
        <mxCell id="3ZfG_3-aHI2Txs_DAWEP-417" value="服务端" style="rounded=1;absoluteArcSize=1;arcSize=2;html=1;strokeColor=none;gradientColor=none;shadow=0;dashed=0;strokeColor=none;fontSize=12;fontColor=#9E9E9E;align=left;verticalAlign=top;spacing=10;spacingTop=-4;fillColor=#F1F8E9;" parent="1" vertex="1">
          <mxGeometry x="1079.5" y="268" width="90" height="190" as="geometry" />
        </mxCell>
        <mxCell id="3ZfG_3-aHI2Txs_DAWEP-446" style="edgeStyle=orthogonalEdgeStyle;rounded=0;html=1;labelBackgroundColor=none;startFill=1;startSize=4;endArrow=blockThin;endFill=1;endSize=4;jettySize=auto;orthogonalLoop=1;strokeColor=#9E9E9E;strokeWidth=2;fontSize=12;fontColor=#000000;align=center;dashed=0;" parent="1" source="3ZfG_3-aHI2Txs_DAWEP-447" target="3ZfG_3-aHI2Txs_DAWEP-531" edge="1">
          <mxGeometry relative="1" as="geometry">
            <Array as="points">
              <mxPoint x="1057" y="333" />
              <mxPoint x="1057" y="388" />
            </Array>
          </mxGeometry>
        </mxCell>
        <mxCell id="3ZfG_3-aHI2Txs_DAWEP-447" value="" style="strokeColor=#dddddd;fillColor=#ffffff;shadow=1;strokeWidth=1;rounded=1;absoluteArcSize=1;arcSize=2;labelPosition=center;verticalLabelPosition=middle;align=center;verticalAlign=bottom;spacingLeft=0;fontColor=#999999;fontSize=12;whiteSpace=wrap;spacingBottom=2;html=1;" parent="1" vertex="1">
          <mxGeometry x="1089.5" y="298" width="70" height="69" as="geometry" />
        </mxCell>
        <mxCell id="3ZfG_3-aHI2Txs_DAWEP-448" value="" style="dashed=0;connectable=0;html=1;fillColor=#757575;strokeColor=none;shape=mxgraph.gcp2.laptop;part=1;" parent="3ZfG_3-aHI2Txs_DAWEP-447" vertex="1">
          <mxGeometry x="0.5" width="50" height="33" relative="1" as="geometry">
            <mxPoint x="-25" y="18.5" as="offset" />
          </mxGeometry>
        </mxCell>
        <mxCell id="3ZfG_3-aHI2Txs_DAWEP-449" style="edgeStyle=orthogonalEdgeStyle;rounded=0;html=1;labelBackgroundColor=none;startFill=1;startSize=4;endArrow=blockThin;endFill=1;endSize=4;jettySize=auto;orthogonalLoop=1;strokeColor=#9E9E9E;strokeWidth=2;fontSize=12;fontColor=#000000;align=center;dashed=0;" parent="1" source="3ZfG_3-aHI2Txs_DAWEP-450" target="3ZfG_3-aHI2Txs_DAWEP-531" edge="1">
          <mxGeometry relative="1" as="geometry">
            <Array as="points">
              <mxPoint x="1057" y="415" />
              <mxPoint x="1057" y="388" />
            </Array>
          </mxGeometry>
        </mxCell>
        <mxCell id="3ZfG_3-aHI2Txs_DAWEP-450" value="" style="strokeColor=#dddddd;fillColor=#ffffff;shadow=1;strokeWidth=1;rounded=1;absoluteArcSize=1;arcSize=2;labelPosition=center;verticalLabelPosition=middle;align=center;verticalAlign=bottom;spacingLeft=0;fontColor=#999999;fontSize=12;whiteSpace=wrap;spacingBottom=2;html=1;" parent="1" vertex="1">
          <mxGeometry x="1089.5" y="383" width="70" height="65" as="geometry" />
        </mxCell>
        <mxCell id="3ZfG_3-aHI2Txs_DAWEP-451" value="" style="dashed=0;connectable=0;html=1;fillColor=#757575;strokeColor=none;shape=mxgraph.gcp2.mobile_devices;part=1;" parent="3ZfG_3-aHI2Txs_DAWEP-450" vertex="1">
          <mxGeometry x="0.5" width="50" height="36.5" relative="1" as="geometry">
            <mxPoint x="-25" y="16.75" as="offset" />
          </mxGeometry>
        </mxCell>
        <mxCell id="3ZfG_3-aHI2Txs_DAWEP-529" value="" style="shape=mxgraph.gcp2.doubleRect;strokeColor=#dddddd;shadow=1;strokeWidth=1;rounded=1;absoluteArcSize=1;arcSize=2;" parent="1" vertex="1">
          <mxGeometry x="512.5" y="670" width="187.5" height="68" as="geometry" />
        </mxCell>
        <mxCell id="3ZfG_3-aHI2Txs_DAWEP-530" value="&lt;font color=&quot;#000000&quot;&gt;控制流混淆&lt;/font&gt;&lt;br&gt;破坏可读性" style="editableCssRules=.*;html=1;fontColor=#999999;shape=image;verticalLabelPosition=middle;verticalAlign=middle;labelPosition=right;align=left;spacingLeft=20;part=1;points=[];imageAspect=0;image=data:image/svg+xml,PHN2ZyB4bWxucz0iaHR0cDovL3d3dy53My5vcmcvMjAwMC9zdmciIHhtbG5zOnY9Imh0dHBzOi8vdmVjdGEuaW8vbmFubyIgd2lkdGg9IjIwIiBoZWlnaHQ9IjIwIiB2aWV3Qm94PSIwIDAgMjAgMjAiPiYjeGE7CTxzdHlsZSB0eXBlPSJ0ZXh0L2NzcyI+JiN4YTsJLnN0MHtmaWxsOiM0Mjg1ZjQ7fSYjeGE7CS5zdDF7ZmlsbDojNjY5ZGY2O30mI3hhOwkuc3Qye2ZpbGw6I2FlY2JmYTt9JiN4YTsJPC9zdHlsZT4mI3hhOwk8cGF0aCBjbGFzcz0ic3QyIiBkPSJNNyA3aDZ2Nkg3eiIvPiYjeGE7CTxwYXRoIGNsYXNzPSJzdDEiIGQ9Ik05IDBoMnY0SDl6TTUgMGgydjRINXptOCAwaDJ2NGgtMnoiLz4mI3hhOwk8cGF0aCBjbGFzcz0ic3QwIiBkPSJNOSAxNmgydjRIOXptLTQgMGgydjRINXptOCAwaDJ2NGgtMnptMy01VjloNHYyem0wIDR2LTJoNHYyem0wLThWNWg0djJ6Ii8+JiN4YTsJPHBhdGggY2xhc3M9InN0MSIgZD0iTTAgMTFWOWg0djJ6bTAgNHYtMmg0djJ6bTAtOFY1aDR2MnoiLz4mI3hhOwk8cGF0aCBjbGFzcz0ic3QyIiBkPSJNMyAzdjE0aDE0VjN6bTEyIDEySDVWNWgxMHoiLz4mI3hhOwk8cGF0aCBjbGFzcz0ic3QxIiBkPSJNMTAgMTBsLTMgM2g2eiIvPiYjeGE7CTxwYXRoIGNsYXNzPSJzdDAiIGQ9Ik0xMyA3bC0zIDMgMyAzeiIvPiYjeGE7PC9zdmc+;" parent="3ZfG_3-aHI2Txs_DAWEP-529" vertex="1">
          <mxGeometry width="30" height="30" relative="1" as="geometry">
            <mxPoint x="15" y="15" as="offset" />
          </mxGeometry>
        </mxCell>
        <mxCell id="3ZfG_3-aHI2Txs_DAWEP-531" value="" style="strokeColor=#dddddd;shadow=1;strokeWidth=1;rounded=1;absoluteArcSize=1;arcSize=2;" parent="1" vertex="1">
          <mxGeometry x="892" y="358" width="137.5" height="60" as="geometry" />
        </mxCell>
        <mxCell id="3ZfG_3-aHI2Txs_DAWEP-532" value="Cloud Load&lt;br&gt;Balancing" style="editableCssRules=.*;html=1;fontColor=#999999;shape=image;verticalLabelPosition=middle;verticalAlign=middle;labelPosition=right;align=left;spacingLeft=20;part=1;points=[];imageAspect=0;image=data:image/svg+xml,PHN2ZyB4bWxucz0iaHR0cDovL3d3dy53My5vcmcvMjAwMC9zdmciIHhtbG5zOnY9Imh0dHBzOi8vdmVjdGEuaW8vbmFubyIgd2lkdGg9IjIwIiBoZWlnaHQ9IjIwIiB2aWV3Qm94PSIwIDAgMjAgMjAiPiYjeGE7CTxzdHlsZSB0eXBlPSJ0ZXh0L2NzcyI+JiN4YTsJLnN0MHtmaWxsOiM0Mjg1ZjQ7fSYjeGE7CS5zdDF7ZmlsbDojNjY5ZGY2O30mI3hhOwkuc3Qye2ZpbGw6I2FlY2JmYTt9JiN4YTsJPC9zdHlsZT4mI3hhOwk8cGF0aCBjbGFzcz0ic3QxIiBkPSJNMTYgMTBoMnY0aC0yem0tNyAwaDJ2NEg5em0tNyAwaDJ2NEgyeiIvPiYjeGE7CTxwYXRoIGNsYXNzPSJzdDAiIGQ9Ik05IDVoMnY0SDl6Ii8+JiN4YTsJPHBhdGggY2xhc3M9InN0MSIgZD0iTTIgOWgxNnYySDJ6Ii8+JiN4YTsJPHBhdGggY2xhc3M9InN0MiIgZD0iTTQgMGgxMnY1SDR6Ii8+JiN4YTsJPHBhdGggY2xhc3M9InN0MSIgZD0iTTEwIDBoNnY1aC02eiIvPiYjeGE7CTxwYXRoIGNsYXNzPSJzdDIiIGQ9Ik0xNCAxNGg2djZoLTZ6TTAgMTRoNnY2SDB6Ii8+JiN4YTsJPHBhdGggY2xhc3M9InN0MSIgZD0iTTMgMTRoM3Y2SDN6Ii8+JiN4YTsJPHBhdGggY2xhc3M9InN0MiIgZD0iTTcgMTRoNnY2SDd6Ii8+JiN4YTsJPHBhdGggY2xhc3M9InN0MSIgZD0iTTEwIDE0aDN2NmgtM3ptNyAwaDN2NmgtM3oiLz4mI3hhOzwvc3ZnPg==;" parent="3ZfG_3-aHI2Txs_DAWEP-531" vertex="1">
          <mxGeometry width="30" height="30" relative="1" as="geometry">
            <mxPoint x="15" y="15" as="offset" />
          </mxGeometry>
        </mxCell>
        <mxCell id="OMHjARtMPfLWOy3MkBUM-11" style="edgeStyle=orthogonalEdgeStyle;rounded=0;orthogonalLoop=1;jettySize=auto;html=1;exitX=1;exitY=0.5;exitDx=0;exitDy=0;entryX=0;entryY=0.5;entryDx=0;entryDy=0;strokeWidth=2;fillColor=#dae8fc;strokeColor=#6c8ebf;" edge="1" parent="1" source="OMHjARtMPfLWOy3MkBUM-3" target="3ZfG_3-aHI2Txs_DAWEP-419">
          <mxGeometry relative="1" as="geometry" />
        </mxCell>
        <mxCell id="OMHjARtMPfLWOy3MkBUM-3" value="" style="shape=mxgraph.gcp2.doubleRect;strokeColor=#dddddd;shadow=1;strokeWidth=1;rounded=1;absoluteArcSize=1;arcSize=2;" vertex="1" parent="1">
          <mxGeometry x="221" y="329" width="171.5" height="68" as="geometry" />
        </mxCell>
        <mxCell id="OMHjARtMPfLWOy3MkBUM-4" value="&lt;font color=&quot;#000000&quot;&gt;底层环境校验&lt;/font&gt;&lt;br&gt;反模拟" style="editableCssRules=.*;html=1;fontColor=#999999;shape=image;verticalLabelPosition=middle;verticalAlign=middle;labelPosition=right;align=left;spacingLeft=20;part=1;points=[];imageAspect=0;image=data:image/svg+xml,PHN2ZyB4bWxucz0iaHR0cDovL3d3dy53My5vcmcvMjAwMC9zdmciIHhtbG5zOnY9Imh0dHBzOi8vdmVjdGEuaW8vbmFubyIgd2lkdGg9IjE2LjQyMDAwMDA3NjI5Mzk0NSIgaGVpZ2h0PSIyMC4wNDk5OTkyMzcwNjA1NDciIGZpbGwtcnVsZT0iZXZlbm9kZCIgdmlld0JveD0iMCAwIDE2LjQyMDAwMDA3NjI5Mzk0NSAyMC4wNDk5OTkyMzcwNjA1NDciPiYjeGE7CTxzdHlsZSB0eXBlPSJ0ZXh0L2NzcyI+JiN4YTsJLnN0MHtmaWxsOiM0Mjg1ZjQ7fSYjeGE7CS5zdDF7ZmlsbDojNjY5ZGY2O30mI3hhOwk8L3N0eWxlPiYjeGE7CTxwYXRoIGNsYXNzPSJzdDEiIGQ9Ik04LjIxIDBMMCAzLjQydjUuNjNjMCA1LjA2IDMuNSA5LjggOC4yMSAxMSA0LjcxLTEuMTUgOC4yMS01Ljg5IDguMjEtMTAuOTVWMy40MnptMCAzLjc5YTIuNjMgMi42MyAwIDAgMSAxLjAwNSA1LjA2QTIuNjMgMi42MyAwIDAgMSA2LjM1IDQuNTZhMi42MyAyLjYzIDAgMCAxIDEuODYtLjc3em00LjExIDExLjE1YTguNjQgOC42NCAwIDAgMS00LjExIDIuOTMgOC42NCA4LjY0IDAgMCAxLTQuMTEtMi45M3YtMi4yNWMwLTEuNjcgMi43NC0yLjUyIDQuMTEtMi41MnM0LjExLjg1IDQuMTEgMi41MnoiLz4mI3hhOwk8cGF0aCBjbGFzcz0ic3QwIiBkPSJNOC4yMSAwdjMuNzlhMi42MyAyLjYzIDAgMSAxIDAgNS4yNnYxLjEyYzEuMzcgMCA0LjExLjg1IDQuMTEgMi41MnYyLjI1YTguNjQgOC42NCAwIDAgMS00LjExIDIuOTNWMjBjNC43MS0xLjE1IDguMjEtNS44OSA4LjIxLTEwLjk1VjMuNDJ6Ii8+JiN4YTs8L3N2Zz4=;" vertex="1" parent="OMHjARtMPfLWOy3MkBUM-3">
          <mxGeometry width="24" height="30" relative="1" as="geometry">
            <mxPoint x="18" y="15" as="offset" />
          </mxGeometry>
        </mxCell>
        <mxCell id="OMHjARtMPfLWOy3MkBUM-6" value="" style="edgeStyle=orthogonalEdgeStyle;rounded=0;html=1;labelBackgroundColor=none;startFill=1;startSize=4;endArrow=blockThin;endFill=1;endSize=4;jettySize=auto;orthogonalLoop=1;strokeColor=#6c8ebf;strokeWidth=2;fontSize=12;fontColor=#000000;align=center;dashed=0;entryX=0.5;entryY=0;entryDx=0;entryDy=0;fillColor=#dae8fc;" edge="1" parent="1" source="3ZfG_3-aHI2Txs_DAWEP-519" target="3ZfG_3-aHI2Txs_DAWEP-453">
          <mxGeometry relative="1" as="geometry">
            <mxPoint x="308" y="199" as="sourcePoint" />
            <mxPoint x="308" y="349" as="targetPoint" />
          </mxGeometry>
        </mxCell>
        <mxCell id="3ZfG_3-aHI2Txs_DAWEP-453" value="2" style="shape=ellipse;fillColor=#ffffff;strokeColor=#BDBDBD;strokeWidth=2;shadow=0;gradientColor=none;fontColor=#757575;align=center;html=1;fontStyle=1;spacingTop=-1;" parent="1" vertex="1">
          <mxGeometry x="297.5" y="279" width="20" height="20" as="geometry" />
        </mxCell>
        <mxCell id="OMHjARtMPfLWOy3MkBUM-12" value="" style="shape=mxgraph.gcp2.doubleRect;strokeColor=#dddddd;shadow=1;strokeWidth=1;rounded=1;absoluteArcSize=1;arcSize=2;" vertex="1" parent="1">
          <mxGeometry x="509.5" y="211" width="187.5" height="68" as="geometry" />
        </mxCell>
        <mxCell id="OMHjARtMPfLWOy3MkBUM-13" value="&lt;font color=&quot;#000000&quot;&gt;环境参数校验&lt;/font&gt;&lt;br&gt;系统环境及硬件指纹" style="editableCssRules=.*;html=1;fontColor=#999999;shape=image;verticalLabelPosition=middle;verticalAlign=middle;labelPosition=right;align=left;spacingLeft=20;part=1;points=[];imageAspect=0;image=data:image/svg+xml,PHN2ZyB4bWxucz0iaHR0cDovL3d3dy53My5vcmcvMjAwMC9zdmciIHhtbG5zOnY9Imh0dHBzOi8vdmVjdGEuaW8vbmFubyIgd2lkdGg9IjIwIiBoZWlnaHQ9IjIwIiB2aWV3Qm94PSIwIDAgMjAgMjAiPiYjeGE7CTxzdHlsZSB0eXBlPSJ0ZXh0L2NzcyI+JiN4YTsJLnN0MHtmaWxsOiM0Mjg1ZjQ7fSYjeGE7CS5zdDF7ZmlsbDojNjY5ZGY2O30mI3hhOwkuc3Qye2ZpbGw6I2FlY2JmYTt9JiN4YTsJPC9zdHlsZT4mI3hhOwk8cGF0aCBjbGFzcz0ic3QyIiBkPSJNNyA3aDZ2Nkg3eiIvPiYjeGE7CTxwYXRoIGNsYXNzPSJzdDEiIGQ9Ik05IDBoMnY0SDl6TTUgMGgydjRINXptOCAwaDJ2NGgtMnoiLz4mI3hhOwk8cGF0aCBjbGFzcz0ic3QwIiBkPSJNOSAxNmgydjRIOXptLTQgMGgydjRINXptOCAwaDJ2NGgtMnptMy01VjloNHYyem0wIDR2LTJoNHYyem0wLThWNWg0djJ6Ii8+JiN4YTsJPHBhdGggY2xhc3M9InN0MSIgZD0iTTAgMTFWOWg0djJ6bTAgNHYtMmg0djJ6bTAtOFY1aDR2MnoiLz4mI3hhOwk8cGF0aCBjbGFzcz0ic3QyIiBkPSJNMyAzdjE0aDE0VjN6bTEyIDEySDVWNWgxMHoiLz4mI3hhOwk8cGF0aCBjbGFzcz0ic3QxIiBkPSJNMTAgMTBsLTMgM2g2eiIvPiYjeGE7CTxwYXRoIGNsYXNzPSJzdDAiIGQ9Ik0xMyA3bC0zIDMgMyAzeiIvPiYjeGE7PC9zdmc+;" vertex="1" parent="OMHjARtMPfLWOy3MkBUM-12">
          <mxGeometry width="30" height="30" relative="1" as="geometry">
            <mxPoint x="15" y="15" as="offset" />
          </mxGeometry>
        </mxCell>
        <mxCell id="OMHjARtMPfLWOy3MkBUM-16" value="" style="shape=mxgraph.gcp2.doubleRect;strokeColor=#dddddd;shadow=1;strokeWidth=1;rounded=1;absoluteArcSize=1;arcSize=2;" vertex="1" parent="1">
          <mxGeometry x="511" y="290" width="187.5" height="68" as="geometry" />
        </mxCell>
        <mxCell id="OMHjARtMPfLWOy3MkBUM-17" value="&lt;font color=&quot;#000000&quot;&gt;hook检测&lt;/font&gt;&lt;br&gt;保护代码不被修改" style="editableCssRules=.*;html=1;fontColor=#999999;shape=image;verticalLabelPosition=middle;verticalAlign=middle;labelPosition=right;align=left;spacingLeft=20;part=1;points=[];imageAspect=0;image=data:image/svg+xml,PHN2ZyB4bWxucz0iaHR0cDovL3d3dy53My5vcmcvMjAwMC9zdmciIHhtbG5zOnY9Imh0dHBzOi8vdmVjdGEuaW8vbmFubyIgd2lkdGg9IjIwIiBoZWlnaHQ9IjIwIiB2aWV3Qm94PSIwIDAgMjAgMjAiPiYjeGE7CTxzdHlsZSB0eXBlPSJ0ZXh0L2NzcyI+JiN4YTsJLnN0MHtmaWxsOiM0Mjg1ZjQ7fSYjeGE7CS5zdDF7ZmlsbDojNjY5ZGY2O30mI3hhOwkuc3Qye2ZpbGw6I2FlY2JmYTt9JiN4YTsJPC9zdHlsZT4mI3hhOwk8cGF0aCBjbGFzcz0ic3QyIiBkPSJNNyA3aDZ2Nkg3eiIvPiYjeGE7CTxwYXRoIGNsYXNzPSJzdDEiIGQ9Ik05IDBoMnY0SDl6TTUgMGgydjRINXptOCAwaDJ2NGgtMnoiLz4mI3hhOwk8cGF0aCBjbGFzcz0ic3QwIiBkPSJNOSAxNmgydjRIOXptLTQgMGgydjRINXptOCAwaDJ2NGgtMnptMy01VjloNHYyem0wIDR2LTJoNHYyem0wLThWNWg0djJ6Ii8+JiN4YTsJPHBhdGggY2xhc3M9InN0MSIgZD0iTTAgMTFWOWg0djJ6bTAgNHYtMmg0djJ6bTAtOFY1aDR2MnoiLz4mI3hhOwk8cGF0aCBjbGFzcz0ic3QyIiBkPSJNMyAzdjE0aDE0VjN6bTEyIDEySDVWNWgxMHoiLz4mI3hhOwk8cGF0aCBjbGFzcz0ic3QxIiBkPSJNMTAgMTBsLTMgM2g2eiIvPiYjeGE7CTxwYXRoIGNsYXNzPSJzdDAiIGQ9Ik0xMyA3bC0zIDMgMyAzeiIvPiYjeGE7PC9zdmc+;" vertex="1" parent="OMHjARtMPfLWOy3MkBUM-16">
          <mxGeometry width="30" height="30" relative="1" as="geometry">
            <mxPoint x="15" y="15" as="offset" />
          </mxGeometry>
        </mxCell>
        <mxCell id="OMHjARtMPfLWOy3MkBUM-19" value="" style="shape=mxgraph.gcp2.doubleRect;strokeColor=#dddddd;shadow=1;strokeWidth=1;rounded=1;absoluteArcSize=1;arcSize=2;" vertex="1" parent="1">
          <mxGeometry x="513" y="479" width="187" height="68" as="geometry" />
        </mxCell>
        <mxCell id="OMHjARtMPfLWOy3MkBUM-20" value="&lt;font color=&quot;#000000&quot;&gt;自实现虚拟机&lt;/font&gt;" style="editableCssRules=.*;html=1;fontColor=#999999;shape=image;verticalLabelPosition=middle;verticalAlign=middle;labelPosition=right;align=left;spacingLeft=20;part=1;points=[];imageAspect=0;image=data:image/svg+xml,PHN2ZyB4bWxucz0iaHR0cDovL3d3dy53My5vcmcvMjAwMC9zdmciIHhtbG5zOnY9Imh0dHBzOi8vdmVjdGEuaW8vbmFubyIgd2lkdGg9IjE3LjE4MDAwMDMwNTE3NTc4IiBoZWlnaHQ9IjIwIiB2aWV3Qm94PSIwIDAgMTcuMTgwMDAwMzA1MTc1NzggMjAiPiYjeGE7CTxzdHlsZSB0eXBlPSJ0ZXh0L2NzcyI+JiN4YTsJLnN0MHtmaWxsOiM0Mjg1ZjQ7fSYjeGE7CS5zdDF7ZmlsbDojNjY5ZGY2O30mI3hhOwk8L3N0eWxlPiYjeGE7CTxwYXRoIGNsYXNzPSJzdDAiIGQ9Ik05LjkgNC44NWE1LjIzIDUuMjMgMCAwIDEgMy43NSAzLjc1aDMuNTNWMy4yNEw5LjkgMHpNMy41MiA4LjYxYTUuMjIgNS4yMiAwIDAgMSAzLjc1LTMuNzVWMEwwIDMuMjR2NS4zN3pNNy4yOCAxNWE1LjIzIDUuMjMgMCAwIDEtMy43NS0zLjc1SC4yMkExMiAxMiAwIDAgMCA3LjI4IDIwem02LjM4LTMuNzVBNS4yMyA1LjIzIDAgMCAxIDkuOTEgMTV2NWExMiAxMiAwIDAgMCA3LjA1LTguNzV6Ii8+JiN4YTsJPGNpcmNsZSBjbGFzcz0ic3QxIiBjeD0iOC41OSIgY3k9IjkuOTIiIHI9IjIuNjMiLz4mI3hhOzwvc3ZnPg==;" vertex="1" parent="OMHjARtMPfLWOy3MkBUM-19">
          <mxGeometry width="26" height="30" relative="1" as="geometry">
            <mxPoint x="17" y="15" as="offset" />
          </mxGeometry>
        </mxCell>
        <mxCell id="OMHjARtMPfLWOy3MkBUM-22" value="" style="shape=mxgraph.gcp2.doubleRect;strokeColor=#dddddd;shadow=1;strokeWidth=1;rounded=1;absoluteArcSize=1;arcSize=2;" vertex="1" parent="1">
          <mxGeometry x="513" y="580" width="187" height="68" as="geometry" />
        </mxCell>
        <mxCell id="OMHjARtMPfLWOy3MkBUM-23" value="&lt;font color=&quot;#000000&quot;&gt;并行运算编译优化&lt;/font&gt;&lt;br&gt;使原始代码逻辑丢失" style="editableCssRules=.*;html=1;fontColor=#999999;shape=image;verticalLabelPosition=middle;verticalAlign=middle;labelPosition=right;align=left;spacingLeft=20;part=1;points=[];imageAspect=0;image=data:image/svg+xml,PHN2ZyB4bWxucz0iaHR0cDovL3d3dy53My5vcmcvMjAwMC9zdmciIHhtbG5zOnY9Imh0dHBzOi8vdmVjdGEuaW8vbmFubyIgd2lkdGg9IjE4LjgyMzUxNDkzODM1NDQ5MiIgaGVpZ2h0PSIyMC4wNzA1Mzc1NjcxMzg2NzIiIHZpZXdCb3g9IjAuMDAwMDExMzM3Nzc3MzIzMjA1OTU1IDAuMDAwMDg1NjY1MDQ0MDI1NTE4IDE4LjgyMzUxNDkzODM1NDQ5MiAyMC4wNzA1Mzc1NjcxMzg2NzIiPiYjeGE7CTxzdHlsZSB0eXBlPSJ0ZXh0L2NzcyI+JiN4YTsJLnN0MHtmaWxsOiM0Mjg1ZjQ7fSYjeGE7CTwvc3R5bGU+JiN4YTsJPHBhdGggY2xhc3M9InN0MCIgZD0iTTE2LjkzIDQuOTc2YTEwLjQzIDEwLjQzIDAgMCAxLTEgLjkyIDguMDkgOC4wOSAwIDAgMS0xMC41MSAxMS44MWgxLjc1YTcuNTEgNy41MSAwIDAgMS0uODYtMS4zSDMuNzNhOC43NSA4Ljc1IDAgMCAxLTEtMS4xOWgzLjA2YTEwLjM4IDEwLjM4IDAgMCAxLS4zNy0xLjMxSDIuMDFhOCA4IDAgMCAxLS40Mi0xLjE5aDMuNTdjLS4wNy0uNDItLjExLS44NS0uMTQtMS4zSDEuMzZhNi41MSA2LjUxIDAgMCAxIDAtLjc3di0uNDNoMy42M2ExMS4zNCAxMS4zNCAwIDAgMSAuMDgtMS4zSDEuNWE4LjE2IDguMTYgMCAwIDEgLjM2LTEuMTloMy40YTkuNTIgOS41MiAwIDAgMSAuMzMtMS4zSDIuNTJhOCA4IDAgMCAxIC45LTEuMTloMi42MWE5LjIgOS4yIDAgMCAxIC43MS0xLjMxSDQuOTJhOC4wNiA4LjA2IDAgMCAxIDcuNzQtLjY5IDEwLjcgMTAuNyAwIDAgMCAxLjI5IDMuMTlzMi45My0xLjY3IDMuMzgtMy40NGEyLjQyIDIuNDIgMCAwIDAtNC42OC0xLjIzdi4wN2E5LjQxIDkuNDEgMCAxIDAgNi4xNyA4LjgyIDguNzEgOC43MSAwIDAgMC0xLjg5LTUuNjd6bS0zLjAxLTIuOTJhMS4xNCAxLjE0IDAgMSAxIC44MSAxLjM5aDBhMS4xMyAxLjEzIDAgMCAxLS44MS0xLjM5eiIvPiYjeGE7PC9zdmc+;" vertex="1" parent="OMHjARtMPfLWOy3MkBUM-22">
          <mxGeometry width="28" height="30" relative="1" as="geometry">
            <mxPoint x="16" y="15" as="offset" />
          </mxGeometry>
        </mxCell>
      </root>
    </mxGraphModel>
  </diagram>
</mxfile>
